HIERARCHY
ROOT Hips
{
	OFFSET 0.000000 0.000000 0.000000
	CHANNELS 6 Xposition Yposition Zposition Zrotation Xrotation Yrotation
	JOINT Spine
	{
		OFFSET 0.000000 0.059888 0.006665
		CHANNELS 6 Xposition Yposition Zposition Zrotation Xrotation Yrotation
		JOINT Chest
		{
			OFFSET 0.000000 0.125681 -0.015911
			CHANNELS 6 Xposition Yposition Zposition Zrotation Xrotation Yrotation
			JOINT UpperChest
			{
				OFFSET 0.000000 0.122768 -0.001652
				CHANNELS 6 Xposition Yposition Zposition Zrotation Xrotation Yrotation
				JOINT Neck
				{
					OFFSET 0.000000 0.155865 0.008735
					CHANNELS 6 Xposition Yposition Zposition Zrotation Xrotation Yrotation
					JOINT Head
					{
						OFFSET 0.000000 0.095969 -0.000410
						CHANNELS 6 Xposition Yposition Zposition Zrotation Xrotation Yrotation
						JOINT LeftEye
						{
							OFFSET 0.015267 0.059218 0.021494
							CHANNELS 6 Xposition Yposition Zposition Zrotation Xrotation Yrotation
							End Site
							{
								OFFSET 0.015267 0.059218 0.021494
							}
						}
						JOINT RightEye
						{
							OFFSET -0.015267 0.059218 0.021494
							CHANNELS 6 Xposition Yposition Zposition Zrotation Xrotation Yrotation
							End Site
							{
								OFFSET -0.015267 0.059218 0.021494
							}
						}
					}
				}
				JOINT LeftShoulder
				{
					OFFSET 0.025383 0.124268 0.007699
					CHANNELS 6 Xposition Yposition Zposition Zrotation Xrotation Yrotation
					JOINT LeftUpperArm
					{
						OFFSET 0.136062 0.000000 0.000000
						CHANNELS 6 Xposition Yposition Zposition Zrotation Xrotation Yrotation
						JOINT LeftLowerArm
						{
							OFFSET 0.225446 0.000000 0.000000
							CHANNELS 6 Xposition Yposition Zposition Zrotation Xrotation Yrotation
							JOINT LeftHand
							{
								OFFSET 0.256325 0.000003 0.000015
								CHANNELS 6 Xposition Yposition Zposition Zrotation Xrotation Yrotation
								JOINT LeftIndexProximal
								{
									OFFSET 0.074229 0.008101 0.022282
									CHANNELS 6 Xposition Yposition Zposition Zrotation Xrotation Yrotation
									JOINT LeftIndexIntermediate
									{
										OFFSET 0.037712 0.000000 -0.000001
										CHANNELS 6 Xposition Yposition Zposition Zrotation Xrotation Yrotation
										JOINT LeftIndexDistal
										{
											OFFSET 0.023218 0.000022 0.000021
											CHANNELS 6 Xposition Yposition Zposition Zrotation Xrotation Yrotation
											End Site
											{
												OFFSET 0.023218 0.000022 0.000021
											}
										}
									}
								}
								JOINT LeftLittleProximal
								{
									OFFSET 0.069261 0.008101 -0.033073
									CHANNELS 6 Xposition Yposition Zposition Zrotation Xrotation Yrotation
									JOINT LeftLittleIntermediate
									{
										OFFSET 0.035643 0.000000 0.000000
										CHANNELS 6 Xposition Yposition Zposition Zrotation Xrotation Yrotation
										JOINT LeftLittleDistal
										{
											OFFSET 0.020542 0.000000 0.000000
											CHANNELS 6 Xposition Yposition Zposition Zrotation Xrotation Yrotation
											End Site
											{
												OFFSET 0.020542 0.000000 0.000000
											}
										}
									}
								}
								JOINT LeftMiddleProximal
								{
									OFFSET 0.075240 0.008101 0.002320
									CHANNELS 6 Xposition Yposition Zposition Zrotation Xrotation Yrotation
									JOINT LeftMiddleIntermediate
									{
										OFFSET 0.042007 0.000000 0.000000
										CHANNELS 6 Xposition Yposition Zposition Zrotation Xrotation Yrotation
										JOINT LeftMiddleDistal
										{
											OFFSET 0.025915 0.000000 0.000000
											CHANNELS 6 Xposition Yposition Zposition Zrotation Xrotation Yrotation
											End Site
											{
												OFFSET 0.025915 0.000000 0.000000
											}
										}
									}
								}
								JOINT LeftRingProximal
								{
									OFFSET 0.074383 0.008101 -0.015403
									CHANNELS 6 Xposition Yposition Zposition Zrotation Xrotation Yrotation
									JOINT LeftRingIntermediate
									{
										OFFSET 0.038967 0.000000 0.000000
										CHANNELS 6 Xposition Yposition Zposition Zrotation Xrotation Yrotation
										JOINT LeftRingDistal
										{
											OFFSET 0.022488 0.000000 0.000000
											CHANNELS 6 Xposition Yposition Zposition Zrotation Xrotation Yrotation
											End Site
											{
												OFFSET 0.022488 0.000000 0.000000
											}
										}
									}
								}
								JOINT LeftThumbProximal
								{
									OFFSET 0.003995 -0.010985 0.018096
									CHANNELS 6 Xposition Yposition Zposition Zrotation Xrotation Yrotation
									JOINT LeftThumbIntermediate
									{
										OFFSET 0.052819 -0.000008 -0.000074
										CHANNELS 6 Xposition Yposition Zposition Zrotation Xrotation Yrotation
										JOINT LeftThumbDistal
										{
											OFFSET 0.032489 0.000042 -0.000035
											CHANNELS 6 Xposition Yposition Zposition Zrotation Xrotation Yrotation
											End Site
											{
												OFFSET 0.032489 0.000042 -0.000035
											}
										}
									}
								}
							}
						}
					}
				}
				JOINT RightShoulder
				{
					OFFSET -0.025383 0.124268 0.007699
					CHANNELS 6 Xposition Yposition Zposition Zrotation Xrotation Yrotation
					JOINT RightUpperArm
					{
						OFFSET -0.136062 0.000000 0.000000
						CHANNELS 6 Xposition Yposition Zposition Zrotation Xrotation Yrotation
						JOINT RightLowerArm
						{
							OFFSET -0.225446 0.000000 0.000000
							CHANNELS 6 Xposition Yposition Zposition Zrotation Xrotation Yrotation
							JOINT RightHand
							{
								OFFSET -0.256325 0.000003 0.000015
								CHANNELS 6 Xposition Yposition Zposition Zrotation Xrotation Yrotation
								JOINT RightIndexProximal
								{
									OFFSET -0.074229 0.008101 0.022282
									CHANNELS 6 Xposition Yposition Zposition Zrotation Xrotation Yrotation
									JOINT RightIndexIntermediate
									{
										OFFSET -0.037712 0.000000 -0.000001
										CHANNELS 6 Xposition Yposition Zposition Zrotation Xrotation Yrotation
										JOINT RightIndexDistal
										{
											OFFSET -0.023218 0.000022 0.000021
											CHANNELS 6 Xposition Yposition Zposition Zrotation Xrotation Yrotation
											End Site
											{
												OFFSET -0.023218 0.000022 0.000021
											}
										}
									}
								}
								JOINT RightLittleProximal
								{
									OFFSET -0.069261 0.008101 -0.033073
									CHANNELS 6 Xposition Yposition Zposition Zrotation Xrotation Yrotation
									JOINT RightLittleIntermediate
									{
										OFFSET -0.035643 0.000000 0.000000
										CHANNELS 6 Xposition Yposition Zposition Zrotation Xrotation Yrotation
										JOINT RightLittleDistal
										{
											OFFSET -0.020542 0.000000 0.000000
											CHANNELS 6 Xposition Yposition Zposition Zrotation Xrotation Yrotation
											End Site
											{
												OFFSET -0.020542 0.000000 0.000000
											}
										}
									}
								}
								JOINT RightMiddleProximal
								{
									OFFSET -0.075240 0.008101 0.002320
									CHANNELS 6 Xposition Yposition Zposition Zrotation Xrotation Yrotation
									JOINT RightMiddleIntermediate
									{
										OFFSET -0.042007 0.000000 0.000000
										CHANNELS 6 Xposition Yposition Zposition Zrotation Xrotation Yrotation
										JOINT RightMiddleDistal
										{
											OFFSET -0.025915 0.000000 0.000000
											CHANNELS 6 Xposition Yposition Zposition Zrotation Xrotation Yrotation
											End Site
											{
												OFFSET -0.025915 0.000000 0.000000
											}
										}
									}
								}
								JOINT RightRingProximal
								{
									OFFSET -0.074383 0.008101 -0.015403
									CHANNELS 6 Xposition Yposition Zposition Zrotation Xrotation Yrotation
									JOINT RightRingIntermediate
									{
										OFFSET -0.038967 0.000000 0.000000
										CHANNELS 6 Xposition Yposition Zposition Zrotation Xrotation Yrotation
										JOINT RightRingDistal
										{
											OFFSET -0.022488 0.000000 0.000000
											CHANNELS 6 Xposition Yposition Zposition Zrotation Xrotation Yrotation
											End Site
											{
												OFFSET -0.022488 0.000000 0.000000
											}
										}
									}
								}
								JOINT RightThumbProximal
								{
									OFFSET -0.003995 -0.010985 0.018096
									CHANNELS 6 Xposition Yposition Zposition Zrotation Xrotation Yrotation
									JOINT RightThumbIntermediate
									{
										OFFSET -0.052819 -0.000008 -0.000074
										CHANNELS 6 Xposition Yposition Zposition Zrotation Xrotation Yrotation
										JOINT RightThumbDistal
										{
											OFFSET -0.032489 0.000042 -0.000035
											CHANNELS 6 Xposition Yposition Zposition Zrotation Xrotation Yrotation
											End Site
											{
												OFFSET -0.032489 0.000042 -0.000035
											}
										}
									}
								}
							}
						}
					}
				}
			}
		}
	}
	JOINT LeftUpperLeg
	{
		OFFSET 0.087143 -0.045243 0.001548
		CHANNELS 6 Xposition Yposition Zposition Zrotation Xrotation Yrotation
		JOINT LeftLowerLeg
		{
			OFFSET 0.000000 -0.394432 -0.000001
			CHANNELS 6 Xposition Yposition Zposition Zrotation Xrotation Yrotation
			JOINT LeftFoot
			{
				OFFSET 0.000000 -0.466446 0.003058
				CHANNELS 6 Xposition Yposition Zposition Zrotation Xrotation Yrotation
				JOINT LeftToes
				{
					OFFSET 0.000000 -0.079218 0.140851
					CHANNELS 6 Xposition Yposition Zposition Zrotation Xrotation Yrotation
					End Site
					{
						OFFSET 0.000000 -0.079218 0.140851
					}
				}
			}
		}
	}
	JOINT RightUpperLeg
	{
		OFFSET -0.087143 -0.045243 0.001548
		CHANNELS 6 Xposition Yposition Zposition Zrotation Xrotation Yrotation
		JOINT RightLowerLeg
		{
			OFFSET 0.000000 -0.394432 -0.000001
			CHANNELS 6 Xposition Yposition Zposition Zrotation Xrotation Yrotation
			JOINT RightFoot
			{
				OFFSET 0.000000 -0.466446 0.003058
				CHANNELS 6 Xposition Yposition Zposition Zrotation Xrotation Yrotation
				JOINT RightToes
				{
					OFFSET 0.000000 -0.079218 0.140851
					CHANNELS 6 Xposition Yposition Zposition Zrotation Xrotation Yrotation
					End Site
					{
						OFFSET 0.000000 -0.079218 0.140851
					}
				}
			}
		}
	}
}
MOTION
Frames: 4
Frame Time: 0.041667
-0.007777 1.013467 0.036083 2.270091 12.799805 8.646436 0.000000 0.059888 0.006665 -3.622966 3.321835 2.504752 0.000000 0.125681 -0.015911 -3.281766 -3.484382 -0.693872 -0.000000 0.122768 -0.001652 -0.000108 -12.397676 0.000033 -0.000000 0.155865 0.008735 0.300295 11.384291 0.119166 0.000000 0.095969 -0.000410 3.119787 -19.388358 3.877061 0.015267 0.059218 0.021494 -1.701131 3.586990 21.747934 -0.015267 0.059218 0.021494 1.701133 3.587002 -21.747925 0.025383 0.124268 0.007699 6.851119 1.264049 5.285783 0.136062 -0.000000 -0.000000 -83.848147 9.074957 8.242087 0.225446 0.000000 0.000000 -7.080973 -5.221842 -20.685243 0.256325 0.000003 0.000015 -6.616059 39.909960 -0.283476 0.074229 0.008101 0.022282 -0.012966 0.667625 1.112104 0.037712 -0.000000 -0.000001 -1.679195 1.282860 0.674523 0.023218 0.000022 0.000021 -0.334985 1.286453 -0.710999 0.069261 0.008101 -0.033073 0.000005 -0.000038 -0.000000 0.035643 0.000000 -0.000000 0.000003 0.000000 -0.000001 0.020542 -0.000000 0.000000 0.890203 -0.008558 -1.101173 0.075240 0.008101 0.002320 0.000001 -0.000002 -0.000005 0.042007 -0.000000 -0.000000 0.000003 0.000039 -0.000014 0.025915 -0.000000 0.000000 0.000003 0.000040 -0.000014 0.074383 0.008101 -0.015403 0.000001 0.000017 0.000004 0.038967 -0.000000 0.000000 0.000003 0.000002 -0.000001 0.022488 0.000000 0.000000 -0.712572 -0.008159 1.310728 0.003995 -0.010985 0.018096 86.199494 49.487521 -89.646581 0.052819 -0.000008 -0.000074 -2.573045 -0.739912 0.463015 0.032489 0.000042 -0.000035 4.590288 -0.705069 -0.717109 -0.025383 0.124268 0.007699 4.500654 1.279322 -5.726793 -0.136062 0.000000 -0.000000 71.094592 20.798684 2.627840 -0.225446 0.000000 -0.000000 8.030937 19.748042 19.253072 -0.256325 0.000003 0.000015 1.183149 25.833696 -0.925586 -0.074229 0.008101 0.022282 0.012969 0.667621 -1.112106 -0.037712 -0.000000 -0.000001 1.679195 1.282861 -0.674522 -0.023218 0.000022 0.000021 0.334983 1.286453 0.710999 -0.069261 0.008101 -0.033073 -0.000005 -0.000043 -0.000001 -0.035643 -0.000000 -0.000000 -0.000002 0.000002 0.000001 -0.020542 0.000000 0.000000 -0.890203 -0.008560 1.101172 -0.075240 0.008101 0.002320 -0.000000 -0.000007 0.000006 -0.042007 -0.000000 -0.000000 -0.000001 0.000041 0.000013 -0.025915 -0.000000 -0.000000 -0.000003 0.000039 0.000014 -0.074383 0.008101 -0.015403 0.000001 0.000016 -0.000004 -0.038967 0.000000 -0.000000 -0.000003 0.000000 0.000000 -0.022488 0.000000 -0.000000 0.712572 -0.008159 -1.310729 -0.003995 -0.010985 0.018096 -86.199439 49.487524 89.646588 -0.052819 -0.000008 -0.000074 2.573041 -0.739910 -0.463024 -0.032489 0.000042 -0.000035 -4.590281 -0.705066 0.717112 0.087143 -0.045243 0.001548 -9.240134 -4.743023 -0.770692 0.000000 -0.394432 -0.000001 3.550244 25.013830 -7.524364 -0.000000 -0.466446 0.003058 7.842315 -19.832491 22.468180 0.000000 -0.079218 0.140851 0.000001 0.248282 -0.000002 -0.087143 -0.045243 0.001548 -13.851870 -10.165416 -2.491877 -0.000000 -0.394432 -0.000001 7.607805 27.744930 -15.355184 -0.000000 -0.466446 0.003058 10.001279 -20.026287 27.679029 -0.000000 -0.079218 0.140851 -0.000000 0.248282 -0.000003 
-0.007564 1.014970 0.033555 2.157926 12.810160 8.573133 -0.000000 0.059888 0.006665 -3.213695 3.693265 2.502649 -0.000000 0.125681 -0.015911 -2.867313 -3.123102 -0.620644 0.000000 0.122768 -0.001652 -0.000108 -12.397680 0.000034 -0.000000 0.155865 0.008735 1.155323 11.559174 0.026195 0.000000 0.095969 -0.000410 5.752949 -18.018848 3.955937 0.015267 0.059218 0.021494 -1.701128 3.586992 21.747932 -0.015267 0.059218 0.021494 1.701132 3.587004 -21.747922 0.025383 0.124268 0.007699 7.455592 0.954902 5.579398 0.136062 -0.000000 0.000000 -85.243315 9.421878 8.237306 0.225446 -0.000000 0.000000 -7.354612 -4.752702 -21.256599 0.256325 0.000003 0.000015 -6.294497 40.519284 -0.926566 0.074229 0.008101 0.022282 -0.012967 0.667620 1.112106 0.037712 0.000000 -0.000001 -1.679195 1.282861 0.674522 0.023218 0.000022 0.000021 -0.334984 1.286452 -0.710998 0.069261 0.008101 -0.033073 0.000005 -0.000040 0.000001 0.035643 -0.000000 -0.000000 0.000003 -0.000001 -0.000001 0.020542 0.000000 -0.000000 0.890204 -0.008562 -1.101172 0.075240 0.008101 0.002320 0.000000 -0.000006 -0.000005 0.042007 -0.000000 -0.000000 0.000003 0.000036 -0.000015 0.025915 -0.000000 -0.000000 0.000003 0.000037 -0.000014 0.074383 0.008101 -0.015403 0.000000 0.000016 0.000004 0.038967 -0.000000 -0.000000 0.000003 0.000001 -0.000002 0.022488 -0.000000 -0.000000 -0.712572 -0.008161 1.310729 0.003995 -0.010985 0.018096 86.199494 49.487524 -89.646581 0.052819 -0.000008 -0.000074 -2.573032 -0.739915 0.463022 0.032489 0.000042 -0.000035 4.590288 -0.705068 -0.717110 -0.025383 0.124268 0.007699 5.207790 0.973811 -6.443238 -0.136062 -0.000000 -0.000000 69.747802 21.814472 3.336944 -0.225446 0.000000 -0.000000 8.015731 19.319585 19.765902 -0.256325 0.000003 0.000015 0.476119 26.182702 -0.863911 -0.074229 0.008101 0.022282 0.012969 0.667621 -1.112105 -0.037712 0.000000 -0.000001 1.679194 1.282858 -0.674521 -0.023218 0.000022 0.000021 0.334983 1.286453 0.710999 -0.069261 0.008101 -0.033073 -0.000005 -0.000043 0.000001 -0.035643 -0.000000 -0.000000 -0.000003 0.000001 0.000001 -0.020542 -0.000000 0.000000 -0.890204 -0.008563 1.101173 -0.075240 0.008101 0.002320 0.000000 -0.000007 0.000007 -0.042007 -0.000000 -0.000000 -0.000004 0.000040 0.000013 -0.025915 -0.000000 -0.000000 -0.000002 0.000041 0.000014 -0.074383 0.008101 -0.015403 -0.000000 0.000015 -0.000002 -0.038967 0.000000 -0.000000 -0.000002 0.000000 -0.000000 -0.022488 0.000000 0.000000 0.712571 -0.008158 -1.310728 -0.003995 -0.010985 0.018096 -86.199433 49.487517 89.646581 -0.052819 -0.000008 -0.000074 2.573040 -0.739911 -0.463023 -0.032489 0.000042 -0.000035 -4.590279 -0.705065 0.717113 0.087143 -0.045243 0.001548 -9.126115 -5.335136 -0.855751 -0.000000 -0.394432 -0.000001 3.341069 25.527308 -7.042223 0.000000 -0.466446 0.003058 7.605303 -19.598255 22.077868 0.000000 -0.079218 0.140851 0.000001 0.248282 0.000003 -0.087143 -0.045243 0.001548 -13.555562 -10.277362 -2.463091 -0.000000 -0.394432 -0.000001 7.278147 27.685861 -14.720232 -0.000000 -0.466446 0.003058 9.479481 -19.467528 27.049648 0.000000 -0.079218 0.140851 -0.000000 0.248282 0.000004 
-0.007329 1.015778 0.030830 1.997526 12.833819 8.378359 -0.000000 0.059888 0.006665 -2.829660 4.015989 2.546009 -0.000000 0.125681 -0.015911 -2.475420 -2.810266 -0.556289 -0.000000 0.122768 -0.001652 -0.000108 -12.397679 0.000032 0.000000 0.155865 0.008735 1.847275 11.831814 -0.038665 0.000000 0.095969 -0.000410 7.828791 -16.042619 3.507803 0.015267 0.059218 0.021494 -1.701132 3.586992 21.747932 -0.015267 0.059218 0.021494 1.701130 3.587002 -21.747923 0.025383 0.124268 0.007699 7.963832 0.650735 6.014838 0.136062 0.000000 -0.000000 -86.393772 9.692276 8.363679 0.225446 0.000000 0.000000 -7.549231 -4.067790 -21.685547 0.256325 0.000003 0.000015 -5.854471 40.895611 -1.492437 0.074229 0.008101 0.022282 -0.012967 0.667622 1.112105 0.037712 -0.000000 -0.000001 -1.679195 1.282864 0.674521 0.023218 0.000022 0.000021 -0.334984 1.286451 -0.711000 0.069261 0.008101 -0.033073 0.000005 -0.000040 -0.000000 0.035643 -0.000000 -0.000000 0.000003 0.000001 -0.000001 0.020542 -0.000000 -0.000000 0.890203 -0.008562 -1.101171 0.075240 0.008101 0.002320 -0.000001 -0.000007 -0.000007 0.042007 0.000000 0.000000 0.000003 0.000042 -0.000015 0.025915 0.000000 0.000000 0.000003 0.000042 -0.000014 0.074383 0.008101 -0.015403 -0.000001 0.000015 0.000003 0.038967 0.000000 0.000000 0.000003 0.000003 -0.000000 0.022488 0.000000 -0.000000 -0.712572 -0.008157 1.310729 0.003995 -0.010985 0.018096 86.199487 49.487524 -89.646581 0.052819 -0.000008 -0.000074 -2.573036 -0.739915 0.463020 0.032489 0.000042 -0.000035 4.590286 -0.705067 -0.717109 -0.025383 0.124268 0.007699 5.790210 0.673176 -7.259586 -0.136062 0.000000 -0.000000 68.633989 22.883961 4.028311 -0.225446 -0.000000 -0.000000 7.978993 18.782424 20.123873 -0.256325 0.000003 0.000015 -0.090822 26.704354 -0.622458 -0.074229 0.008101 0.022282 0.012969 0.667620 -1.112107 -0.037712 0.000000 -0.000001 1.679194 1.282861 -0.674522 -0.023218 0.000022 0.000021 0.334983 1.286454 0.711001 -0.069261 0.008101 -0.033073 -0.000005 -0.000044 -0.000001 -0.035643 -0.000000 -0.000000 -0.000002 0.000001 0.000001 -0.020542 0.000000 -0.000000 -0.890204 -0.008561 1.101174 -0.075240 0.008101 0.002320 0.000000 -0.000008 0.000006 -0.042007 0.000000 0.000000 -0.000002 0.000040 0.000014 -0.025915 -0.000000 0.000000 -0.000003 0.000040 0.000013 -0.074383 0.008101 -0.015403 0.000001 0.000015 -0.000004 -0.038967 -0.000000 -0.000000 -0.000002 0.000001 0.000000 -0.022488 0.000000 -0.000000 0.712570 -0.008159 -1.310729 -0.003995 -0.010985 0.018096 -86.199439 49.487517 89.646581 -0.052819 -0.000008 -0.000074 2.573043 -0.739910 -0.463019 -0.032489 0.000042 -0.000035 -4.590286 -0.705065 0.717109 0.087143 -0.045243 0.001548 -9.033604 -5.904799 -0.937041 -0.000000 -0.394432 -0.000001 3.308489 26.138709 -6.916143 -0.000000 -0.466446 0.003058 7.399493 -19.161602 21.965820 0.000000 -0.079218 0.140851 0.000000 0.248285 0.000002 -0.087143 -0.045243 0.001548 -13.240486 -10.508856 -2.457273 0.000000 -0.394432 -0.000001 6.939986 27.824936 -14.003221 0.000000 -0.466446 0.003058 8.975860 -18.882277 26.461027 -0.000000 -0.079218 0.140851 0.000001 0.248290 0.000002 
-0.007141 1.016317 0.028041 1.843197 12.816444 8.117258 -0.000000 0.059888 0.006665 -2.481891 4.299770 2.508924 0.000000 0.125681 -0.015911 -2.128770 -2.542619 -0.505863 0.000000 0.122768 -0.001652 -0.000107 -12.397679 0.000035 0.000000 0.155865 0.008735 2.381662 12.186943 -0.076215 0.000000 0.095969 -0.000410 9.267401 -13.633337 2.894829 0.015267 0.059218 0.021494 -1.701130 3.586995 21.747932 -0.015267 0.059218 0.021494 1.701131 3.587006 -21.747917 0.025383 0.124268 0.007699 8.542232 0.357249 6.541854 0.136062 0.000000 -0.000000 -87.437357 9.957428 8.562271 0.225446 -0.000000 0.000000 -7.702468 -3.376587 -22.002324 0.256325 0.000003 0.000015 -5.910879 40.778931 -1.427099 0.074229 0.008101 0.022282 -0.012967 0.667619 1.112106 0.037712 0.000000 -0.000001 -1.679194 1.282860 0.674522 0.023218 0.000022 0.000021 -0.334985 1.286451 -0.710999 0.069261 0.008101 -0.033073 0.000004 -0.000044 0.000001 0.035643 -0.000000 0.000000 0.000003 0.000000 -0.000000 0.020542 -0.000000 0.000000 0.890204 -0.008563 -1.101171 0.075240 0.008101 0.002320 -0.000001 -0.000009 -0.000005 0.042007 -0.000000 0.000000 0.000003 0.000040 -0.000013 0.025915 0.000000 0.000000 0.000002 0.000041 -0.000013 0.074383 0.008101 -0.015403 -0.000001 0.000014 0.000004 0.038967 0.000000 -0.000000 0.000003 -0.000001 -0.000001 0.022488 0.000000 -0.000000 -0.712572 -0.008158 1.310731 0.003995 -0.010985 0.018096 86.199487 49.487521 -89.646574 0.052819 -0.000008 -0.000074 -2.573040 -0.739916 0.463021 0.032489 0.000042 -0.000035 4.590285 -0.705069 -0.717108 -0.025383 0.124268 0.007699 6.385199 0.383998 -8.135677 -0.136062 0.000000 -0.000000 67.639275 23.963227 4.699954 -0.225446 -0.000000 -0.000000 7.924997 18.327360 20.253271 -0.256325 0.000003 0.000015 -0.239728 27.023700 -0.496832 -0.074229 0.008101 0.022282 0.012969 0.667620 -1.112107 -0.037712 0.000000 -0.000001 1.679195 1.282862 -0.674522 -0.023218 0.000022 0.000021 0.334984 1.286453 0.711000 -0.069261 0.008101 -0.033073 -0.000003 -0.000042 -0.000002 -0.035643 -0.000000 0.000000 -0.000002 0.000001 -0.000000 -0.020542 0.000000 -0.000000 -0.890206 -0.008563 1.101171 -0.075240 0.008101 0.002320 0.000001 -0.000006 0.000004 -0.042007 0.000000 0.000000 -0.000002 0.000040 0.000013 -0.025915 0.000000 0.000000 -0.000003 0.000037 0.000012 -0.074383 0.008101 -0.015403 0.000001 0.000014 -0.000005 -0.038967 0.000000 0.000000 -0.000002 0.000001 -0.000000 -0.022488 0.000000 -0.000000 0.712572 -0.008160 -1.310730 -0.003995 -0.010985 0.018096 -86.199433 49.487521 89.646581 -0.052819 -0.000008 -0.000074 2.573048 -0.739909 -0.463023 -0.032489 0.000042 -0.000035 -4.590285 -0.705066 0.717111 0.087143 -0.045243 0.001548 -8.924532 -6.329449 -0.991832 -0.000000 -0.394432 -0.000001 3.263708 26.580062 -6.773652 0.000000 -0.466446 0.003058 7.273418 -18.802816 21.990141 0.000000 -0.079218 0.140851 0.000001 0.248285 0.000001 -0.087143 -0.045243 0.001548 -12.928630 -10.703805 -2.441338 0.000000 -0.394432 -0.000001 6.602574 27.912603 -13.304828 0.000000 -0.466446 0.003058 8.596228 -18.474154 25.953006 -0.000000 -0.079218 0.140851 -0.000001 0.248288 -0.000001 
